<?xml version="1.0" encoding="UTF-8" standalone="no"?>
<!-- Created with Inkscape (http://www.inkscape.org/) -->

<svg
   xmlns:dc="http://purl.org/dc/elements/1.1/"
   xmlns:cc="http://creativecommons.org/ns#"
   xmlns:rdf="http://www.w3.org/1999/02/22-rdf-syntax-ns#"
   xmlns:svg="http://www.w3.org/2000/svg"
   xmlns="http://www.w3.org/2000/svg"
   xmlns:sodipodi="http://sodipodi.sourceforge.net/DTD/sodipodi-0.dtd"
   xmlns:inkscape="http://www.inkscape.org/namespaces/inkscape"
   width="16"
   height="16"
   viewBox="0 0 4.2333332 4.2333335"
   version="1.1"
   id="svg8"
   inkscape:version="0.92.0 r15299"
   sodipodi:docname="anaconda.svg">
  <defs
     id="defs2" />
  <sodipodi:namedview
     id="base"
     pagecolor="#ffffff"
     bordercolor="#666666"
     borderopacity="1.0"
     inkscape:pageopacity="0.0"
     inkscape:pageshadow="2"
     inkscape:zoom="1"
     inkscape:cx="-126.391"
     inkscape:cy="-41.186134"
     inkscape:document-units="mm"
     inkscape:current-layer="layer1"
     showgrid="false"
     units="px"
     inkscape:window-width="1831"
     inkscape:window-height="1178"
     inkscape:window-x="81"
     inkscape:window-y="-8"
     inkscape:window-maximized="1" />
  <metadata
     id="metadata5">
    <rdf:RDF>
      <cc:Work
         rdf:about="">
        <dc:format>image/svg+xml</dc:format>
        <dc:type
           rdf:resource="http://purl.org/dc/dcmitype/StillImage" />
        <dc:title></dc:title>
      </cc:Work>
    </rdf:RDF>
  </metadata>
  <g
     inkscape:label="レイヤー 1"
     inkscape:groupmode="layer"
     id="layer1"
     transform="translate(0,-292.76665)">
    <path
       style="fill:#43b02a;fill-opacity:1;stroke-width:0.01886743"
       d="m 1.8151911,296.98571 c -0.2976095,-0.0464 -0.8043776,-0.2476 -0.86583847,-0.34383 -0.022211,-0.0348 -0.078543,-0.48143 -0.062715,-0.49726 0.00246,-0.002 0.1105224,-0.006 0.24013897,-0.008 0.2344941,-0.003 0.236387,-0.003 0.3805637,0.0646 0.2105084,0.0989 0.3640291,0.13116 0.6191156,0.13002 0.3430245,-0.002 0.6077382,-0.091 0.8843047,-0.299 0.3926984,-0.29529 0.6168542,-0.83629 0.5497218,-1.32675 -0.042725,-0.31214 -0.1659571,-0.57428 -0.3753994,-0.79854 -0.1445915,-0.15482 -0.2498772,-0.23441 -0.4292372,-0.32445 -0.1836254,-0.0922 -0.3189866,-0.12598 -0.5633644,-0.14065 l -0.2075096,-0.0125 0.1562372,-0.1623 0.1562373,-0.16231 -0.1077604,-0.0924 c -0.059268,-0.0508 -0.1485984,-0.12309 -0.1985115,-0.16054 l -0.090751,-0.0681 0.1120662,-0.0117 c 0.2497966,-0.0261 0.6564019,0.0457 0.9437168,0.16665 0.3525646,0.14844 0.7137679,0.45069 0.9321348,0.78 0.441927,0.66646 0.46084,1.55834 0.04774,2.25151 -0.2901945,0.48695 -0.7496127,0.82595 -1.3177612,0.97235 -0.2039668,0.0526 -0.6047052,0.0741 -0.8031337,0.0432 z M 0.68164653,296.4431 c -0.081686,-0.0756 -0.2245827,-0.23701 -0.3054463,-0.34508 -0.022699,-0.0303 0.00297,-0.0279 0.3276941,0.0313 0.035702,0.007 0.041065,0.026 0.056596,0.20572 0.00944,0.10919 0.017156,0.19817 0.017155,0.19772 -1.5e-6,-4.3e-4 -0.043201,-0.0408 -0.095999,-0.0896 z m 0.2068251,-0.49689 c 0.00648,-0.0324 0.012075,-0.10248 0.012423,-0.15568 l 6.346e-4,-0.0967 0.06005,0.0755 c 0.033028,0.0415 0.095294,0.11157 0.13836917,0.15568 l 0.078319,0.0802 H 1.0274753 0.87668333 Z m -0.4165509,0.005 c -0.085143,-0.0178 -0.1606338,-0.0382 -0.1677569,-0.0453 -0.013816,-0.0138 0.044095,-0.18518 0.1124798,-0.33282 l 0.041486,-0.0896 0.1597563,0.0776 0.1597564,0.0776 -0.016111,0.17389 -0.016111,0.17388 -0.059347,-0.001 c -0.032641,-7.7e-4 -0.1290094,-0.016 -0.2141526,-0.0338 z m -0.3511661,-0.35647 c -0.049131,-0.14288 -0.1101415,-0.40091 -0.094793,-0.40091 0.027384,0 0.289535,0.21745 0.2822436,0.23411 -0.00497,0.0114 -0.036103,0.0843 -0.069195,0.16217 -0.033092,0.0778 -0.061929,0.14361 -0.064082,0.14615 -0.00215,0.003 -0.026532,-0.0611 -0.0541736,-0.14152 z m 0.5412963,-0.18215 c -0.0532,-0.0248 -0.1028022,-0.0549 -0.1102272,-0.0669 -0.00747,-0.0121 0.020921,-0.0741 0.063543,-0.13875 0.072596,-0.11015 0.077081,-0.11363 0.077701,-0.0603 3.637e-4,0.0311 0.020186,0.11393 0.044052,0.18399 0.023867,0.0701 0.038504,0.12729 0.032526,0.12719 -0.00598,-9e-5 -0.054396,-0.0205 -0.1075948,-0.0452 z m -0.4530063,-0.28009 -0.1535787,-0.11737 0.04753,-0.0569 c 0.026142,-0.0313 0.095252,-0.0999 0.1535786,-0.15252 l 0.1060482,-0.0956 0.1059584,0.13473 0.1059584,0.13472 -0.087094,0.13512 c -0.047902,0.0743 -0.095583,0.13514 -0.1059585,0.13517 -0.010375,4e-5 -0.087975,-0.0528 -0.1724424,-0.11732 z m -0.2011515,-0.41357 c 0.00867,-0.11059 0.055442,-0.37122 0.077147,-0.42991 0.011127,-0.0301 0.029433,-0.007 0.095964,0.12342 0.045218,0.0883 0.07889,0.16229 0.074828,0.16436 -0.00406,0.002 -0.063286,0.0575 -0.1316091,0.12326 L -6.9672779e-8,294.81958 Z m 0.5743873,-0.007 c -0.045196,-0.0581 -0.079152,-0.10829 -0.075458,-0.1116 0.049579,-0.0444 0.2269584,-0.14074 0.2185215,-0.11875 -0.011497,0.03 -0.047328,0.21749 -0.055952,0.29282 -0.0043,0.0375 -0.015587,0.0294 -0.087112,-0.0625 z m -0.1910465,-0.28219 c -0.011359,-0.0137 -0.062157,-0.10842 -0.1128835,-0.2105 -0.060868,-0.12249 -0.085165,-0.18997 -0.071452,-0.19845 0.033652,-0.0208 0.4099689,-0.11708 0.4196772,-0.10737 0.00488,0.005 0.021084,0.072 0.035999,0.14919 0.014915,0.0772 0.032423,0.15377 0.038906,0.17022 0.017274,0.0438 -0.2804628,0.23281 -0.3102467,0.19691 z m 0.4632822,-0.37832 c -0.00746,-0.0516 -0.017929,-0.1122 -0.023274,-0.13466 -0.00915,-0.0384 -0.00207,-0.0412 0.1204287,-0.0472 l 0.13014757,-0.006 -0.07663,0.0946 c -0.042146,0.052 -0.09024,0.11549 -0.10687347,0.14099 l -0.030244,0.0464 z m -0.5122422,-0.32164 c 0.049882,-0.0775 0.2114032,-0.28066 0.2460942,-0.30946 0.025602,-0.0213 0.028926,-0.006 0.028926,0.13492 v 0.15893 l -0.108471,0.0228 c -0.059659,0.0125 -0.1295324,0.0285 -0.1552741,0.0354 l -0.046803,0.0126 z m 0.4636654,-0.24335 v -0.20292 l 0.070742,0.0128 c 0.038908,0.007 0.12875197,0.0258 0.19965307,0.0417 0.145286,0.0326 0.1382341,0.0114 0.076063,0.22799 -0.023615,0.0823 -0.035741,0.0991 -0.071494,0.0991 -0.023681,0 -0.095235,0.005 -0.15900977,0.0121 l -0.1159544,0.0121 z m 0.54707107,0.14348 c 0,-0.0472 0.064365,-0.19234 0.082351,-0.18566 0.011772,0.004 0.053238,0.0194 0.092146,0.0333 0.038908,0.0139 0.070727,0.03 0.070708,0.0357 -1.86e-5,0.006 -0.055197,0.0376 -0.1226193,0.0709 -0.067422,0.0333 -0.1225854,0.0539 -0.1225857,0.0458 z m 0.3489936,-0.30386 c -0.020751,-0.009 -0.078074,-0.0333 -0.1273848,-0.0547 l -0.089656,-0.039 0.047432,-0.10728 c 0.026087,-0.059 0.064973,-0.13568 0.086412,-0.17038 l 0.038981,-0.0631 0.078702,0.0545 c 0.043286,0.03 0.1107593,0.0801 0.1499411,0.11145 l 0.071239,0.057 -0.096144,0.11017 c -0.1076796,0.12339 -0.1072822,0.12314 -0.1595223,0.10134 z m -0.5532757,-0.19037 c -0.065665,-0.019 -0.1293331,-0.0383 -0.1414838,-0.0429 -0.012151,-0.005 0.069679,-0.0527 0.1818443,-0.10686 0.1121651,-0.0542 0.2078267,-0.0946 0.2125813,-0.0899 0.00809,0.008 -0.1194006,0.28093 -0.1290925,0.27627 -0.00245,-10e-4 -0.058184,-0.0177 -0.1238493,-0.0367 z"
       id="path4509"
       inkscape:connector-curvature="0" />
  </g>
</svg>
